<svg xmlns="http://www.w3.org/2000/svg" viewBox="0 0 800 600"><defs><linearGradient id="bgGradient" x1="0%" x2="100%" y1="0%" y2="100%"><stop offset="0%" stop-color="#0D1117"/><stop offset="100%" stop-color="#161B22"/></linearGradient><filter id="roomGlow" width="160%" height="160%" x="-30%" y="-30%"><feGaussianBlur result="blur" stdDeviation="5"/><feComposite in="SourceGraphic" in2="blur" operator="over"/></filter><filter id="entityGlow" width="160%" height="160%" x="-30%" y="-30%"><feGaussianBlur result="blur" stdDeviation="1.5"/><feComposite in="SourceGraphic" in2="blur" operator="over"/></filter><filter id="messageBubble" width="140%" height="140%" x="-20%" y="-20%"><feGaussianBlur result="blur" stdDeviation="1"/><feComposite in="SourceGraphic" in2="blur" operator="over"/></filter><marker id="arrowhead" markerHeight="7" markerWidth="10" orient="auto" refX="0" refY="3.5"><polygon fill="#88C0D0" points="0 0 10 3.5 0 7"/></marker></defs><rect width="800" height="600" fill="url(#bgGradient)"/><g stroke="#343B4A" stroke-width=".5" opacity=".2"><path d="M0,100 H800 M0,200 H800 M0,300 H800 M0,400 H800 M0,500 H800"/><path d="M100,0 V600 M200,0 V600 M300,0 V600 M400,0 V600 M500,0 V600 M600,0 V600 M700,0 V600"/></g><text x="400" y="100" fill="#E5E9F0" font-family="Arial, sans-serif" font-size="42" font-weight="bold" text-anchor="middle">Rooms</text><text x="400" y="140" fill="#4D5BCE" font-family="Arial, sans-serif" font-size="18" text-anchor="middle">In ElizaOS Framework</text><g transform="translate(400, 320)"><circle cx="0" cy="0" r="120" fill="#292E42" stroke="#88C0D0" stroke-width="3" filter="url(#roomGlow)"/><circle cx="-40" cy="-20" r="15" fill="#A3BE8C" stroke="#EBCB8B" stroke-width="1.5" filter="url(#entityGlow)"/><text x="-40" y="-15" fill="#EBCB8B" font-family="Arial, sans-serif" font-size="10" text-anchor="middle">User</text><circle cx="40" cy="-20" r="15" fill="#B48EAD" stroke="#EBCB8B" stroke-width="1.5" filter="url(#entityGlow)"/><text x="40" y="-15" fill="#EBCB8B" font-family="Arial, sans-serif" font-size="10" text-anchor="middle">Agent</text><path fill="none" stroke="#88C0D0" stroke-width="1.5" d="M-30,-30 Q0,-50 30,-30"/><rect width="120" height="25" x="-60" y="-80" fill="#2E3440" stroke="#88C0D0" stroke-width="1" filter="url(#messageBubble)" rx="10" ry="10"/><text x="0" y="-63" fill="#E5E9F0" font-family="Arial, sans-serif" font-size="12" text-anchor="middle">Conversation</text></g><g transform="translate(240, 200)"><circle cx="0" cy="0" r="70" fill="#292E42" stroke="#88C0D0" stroke-width="2" filter="url(#roomGlow)"/><text x="0" y="5" fill="#88C0D0" font-family="Arial, sans-serif" font-size="16" text-anchor="middle">Channel A</text><circle cx="-20" cy="-20" r="10" fill="#A3BE8C" stroke="#EBCB8B" stroke-width="1" filter="url(#entityGlow)"/><circle cx="20" cy="20" r="10" fill="#B48EAD" stroke="#EBCB8B" stroke-width="1" filter="url(#entityGlow)"/></g><g transform="translate(560, 210)"><circle cx="0" cy="0" r="80" fill="#292E42" stroke="#88C0D0" stroke-width="2" filter="url(#roomGlow)"/><text x="0" y="5" fill="#88C0D0" font-family="Arial, sans-serif" font-size="16" text-anchor="middle">Thread B</text><circle cx="-30" cy="-20" r="10" fill="#A3BE8C" stroke="#EBCB8B" stroke-width="1" filter="url(#entityGlow)"/><circle cx="0" cy="20" r="10" fill="#B48EAD" stroke="#EBCB8B" stroke-width="1" filter="url(#entityGlow)"/><circle cx="30" cy="-20" r="10" fill="#A3BE8C" stroke="#EBCB8B" stroke-width="1" filter="url(#entityGlow)"/></g><g transform="translate(400, 480)"><circle cx="0" cy="0" r="60" fill="#292E42" stroke="#88C0D0" stroke-width="2" filter="url(#roomGlow)"/><text x="0" y="5" fill="#88C0D0" font-family="Arial, sans-serif" font-size="16" text-anchor="middle">DM Space</text><circle cx="-20" cy="0" r="10" fill="#A3BE8C" stroke="#EBCB8B" stroke-width="1" filter="url(#entityGlow)"/><circle cx="20" cy="0" r="10" fill="#B48EAD" stroke="#EBCB8B" stroke-width="1" filter="url(#entityGlow)"/></g><g stroke="#88C0D0" stroke-dasharray="5 3" stroke-width="1.5" opacity=".7"><path marker-end="url(#arrowhead)" d="M300,230 Q350,250 380,290"/><path marker-end="url(#arrowhead)" d="M500,240 Q450,270 420,290"/><path marker-end="url(#arrowhead)" d="M400,420 L400,380"/></g><g><g opacity=".8" transform="translate(600, 400)"><rect width="80" height="60" x="-40" y="-30" fill="none" stroke="#88C0D0" stroke-width="1" rx="8" ry="8"/><text x="0" y="-15" fill="#88C0D0" font-family="Arial, sans-serif" font-size="10" text-anchor="middle">Room Features</text><rect width="60" height="3" x="-30" y="0" fill="#4D5BCE" rx="1" ry="1"/><rect width="50" height="3" x="-30" y="10" fill="#4D5BCE" rx="1" ry="1"/><rect width="40" height="3" x="-30" y="20" fill="#4D5BCE" rx="1" ry="1"/></g></g><g><g opacity=".8" transform="translate(190, 400)"><circle cx="0" cy="0" r="35" fill="none" stroke="#88C0D0" stroke-width="1"/><path stroke="#88C0D0" stroke-width="1" d="M0,-25 L0,25"/><path stroke="#88C0D0" stroke-width="1" d="M-25,0 L25,0"/><circle cx="0" cy="0" r="15" fill="none" stroke="#88C0D0" stroke-width="1"/><path stroke="#4D5BCE" stroke-width="1.5" d="M-10,-10 L10,10"/><path stroke="#4D5BCE" stroke-width="1.5" d="M-10,10 L10,-10"/></g></g><g fill="#E5E9F0" font-family="Arial, sans-serif"><text x="400" y="570" fill="#88C0D0" font-size="15" text-anchor="middle">Individual interaction spaces where entities communicate</text></g><g opacity=".4"><circle cx="100" cy="100" r="2" fill="#4D5BCE"/><circle cx="150" cy="80" r="1" fill="#4D5BCE"/><circle cx="600" cy="120" r="2" fill="#4D5BCE"/><circle cx="650" cy="90" r="1" fill="#4D5BCE"/><circle cx="200" cy="500" r="1" fill="#4D5BCE"/><circle cx="700" cy="450" r="2" fill="#4D5BCE"/><circle cx="750" cy="520" r="1" fill="#4D5BCE"/></g></svg>