<svg xmlns="http://www.w3.org/2000/svg" viewBox="0 0 800 600"><defs><linearGradient id="bgGradient" x1="0%" x2="100%" y1="0%" y2="100%"><stop offset="0%" stop-color="#0D1117"/><stop offset="100%" stop-color="#161B22"/></linearGradient><filter id="worldGlow" width="200%" height="200%" x="-50%" y="-50%"><feGaussianBlur result="blur" stdDeviation="6"/><feComposite in="SourceGraphic" in2="blur" operator="over"/></filter><filter id="roomGlow" width="160%" height="160%" x="-30%" y="-30%"><feGaussianBlur result="blur" stdDeviation="2"/><feComposite in="SourceGraphic" in2="blur" operator="over"/></filter><filter id="entityGlow" width="160%" height="160%" x="-30%" y="-30%"><feGaussianBlur result="blur" stdDeviation="1"/><feComposite in="SourceGraphic" in2="blur" operator="over"/></filter><marker id="arrowhead" markerHeight="7" markerWidth="10" orient="auto" refX="0" refY="3.5"><polygon fill="#4D5BCE" points="0 0 10 3.5 0 7"/></marker><filter id="textBackground" width="120%" height="120%" x="-10%" y="-10%"><feFlood flood-color="#0D1117" flood-opacity=".7" result="bg"/><feComposite in="bg" in2="SourceGraphic" operator="in"/><feComposite in="SourceGraphic" operator="over"/></filter></defs><rect width="800" height="600" fill="url(#bgGradient)"/><g stroke="#343B4A" stroke-width=".5" opacity=".2"><path d="M0,100 H800 M0,200 H800 M0,300 H800 M0,400 H800 M0,500 H800"/><path d="M100,0 V600 M200,0 V600 M300,0 V600 M400,0 V600 M500,0 V600 M600,0 V600 M700,0 V600"/></g><text x="400" y="80" fill="#E5E9F0" font-family="Arial, sans-serif" font-size="42" font-weight="bold" text-anchor="middle">Worlds</text><text x="400" y="120" fill="#88C0D0" font-family="Arial, sans-serif" font-size="18" text-anchor="middle">In ElizaOS Framework</text><g transform="translate(400, 330)"><circle cx="0" cy="0" r="130" fill="#1A1D2D" stroke="#4D5BCE" stroke-width="3" filter="url(#worldGlow)"/><text x="0" y="0" fill="#4D5BCE" font-family="Arial, sans-serif" font-size="24" font-weight="bold" text-anchor="middle">DEV</text><g opacity=".85"><circle cx="-60" cy="-40" r="25" fill="#292E42" stroke="#88C0D0" stroke-width="1.5" filter="url(#roomGlow)"/><text x="-60" y="-36" fill="#E5E9F0" font-family="Arial, sans-serif" font-size="10" text-anchor="middle">#general</text><circle cx="50" cy="-50" r="22" fill="#292E42" stroke="#88C0D0" stroke-width="1.5" filter="url(#roomGlow)"/><text x="50" y="-46" fill="#E5E9F0" font-family="Arial, sans-serif" font-size="10" text-anchor="middle">#bugs</text><circle cx="10" cy="60" r="30" fill="#292E42" stroke="#88C0D0" stroke-width="1.5" filter="url(#roomGlow)"/><text x="10" y="64" fill="#E5E9F0" font-family="Arial, sans-serif" font-size="10" text-anchor="middle">#roadmap</text><circle cx="-70" cy="60" r="20" fill="#292E42" stroke="#88C0D0" stroke-width="1.5" filter="url(#roomGlow)"/><text x="-70" y="64" fill="#E5E9F0" font-family="Arial, sans-serif" font-size="8" text-anchor="middle">#support</text></g></g><g transform="translate(220, 230)"><circle cx="0" cy="0" r="70" fill="#1A1D2D" stroke="#B48EAD" stroke-width="2" filter="url(#worldGlow)"/><text x="0" y="5" fill="#B48EAD" font-family="Arial, sans-serif" font-size="18" font-weight="bold" text-anchor="middle">QA</text><g opacity=".85"><circle cx="-20" cy="-15" r="15" fill="#292E42" stroke="#88C0D0" stroke-width="1" filter="url(#roomGlow)"/><circle cx="15" cy="20" r="18" fill="#292E42" stroke="#88C0D0" stroke-width="1" filter="url(#roomGlow)"/></g></g><g transform="translate(600, 230)"><circle cx="0" cy="0" r="80" fill="#1A1D2D" stroke="#A3BE8C" stroke-width="2" filter="url(#worldGlow)"/><text x="0" y="5" fill="#A3BE8C" font-family="Arial, sans-serif" font-size="18" font-weight="bold" text-anchor="middle">PROD</text><g opacity=".85"><circle cx="-25" cy="-15" r="20" fill="#292E42" stroke="#88C0D0" stroke-width="1" filter="url(#roomGlow)"/><text x="-25" y="-11" fill="#E5E9F0" font-family="Arial, sans-serif" font-size="8" text-anchor="middle">#main</text><circle cx="20" cy="25" r="17" fill="#292E42" stroke="#88C0D0" stroke-width="1" filter="url(#roomGlow)"/><text x="20" y="29" fill="#E5E9F0" font-family="Arial, sans-serif" font-size="8" text-anchor="middle">#help</text><circle cx="25" cy="-20" r="15" fill="#292E42" stroke="#88C0D0" stroke-width="1" filter="url(#roomGlow)"/></g></g><g transform="translate(500, 450)"><circle cx="0" cy="0" r="60" fill="#1A1D2D" stroke="#5E81AC" stroke-width="2" filter="url(#worldGlow)"/><text x="0" y="5" fill="#5E81AC" font-family="Arial, sans-serif" font-size="18" font-weight="bold" text-anchor="middle">AI</text><g opacity=".85"><circle cx="0" cy="-15" r="17" fill="#292E42" stroke="#88C0D0" stroke-width="1" filter="url(#roomGlow)"/><circle cx="0" cy="15" r="12" fill="#292E42" stroke="#88C0D0" stroke-width="1" filter="url(#roomGlow)"/></g></g><g stroke-dasharray="5 3" stroke-width="1.5" opacity=".7"><path stroke="#4D5BCE" marker-end="url(#arrowhead)" d="M280,250 L340,290"/><path stroke="#A3BE8C" marker-end="url(#arrowhead)" d="M540,250 L460,290"/><path stroke="#5E81AC" marker-end="url(#arrowhead)" d="M450,400 L480,410"/></g><g transform="translate(400, 330)"><circle cx="-60" cy="-50" r="6" fill="#A3BE8C" stroke="#EBCB8B" stroke-width="1" filter="url(#entityGlow)"/><circle cx="-50" cy="-30" r="6" fill="#B48EAD" stroke="#EBCB8B" stroke-width="1" filter="url(#entityGlow)"/><circle cx="40" cy="-60" r="6" fill="#A3BE8C" stroke="#EBCB8B" stroke-width="1" filter="url(#entityGlow)"/><circle cx="60" cy="-40" r="6" fill="#B48EAD" stroke="#EBCB8B" stroke-width="1" filter="url(#entityGlow)"/><circle cx="0" cy="60" r="6" fill="#A3BE8C" stroke="#EBCB8B" stroke-width="1" filter="url(#entityGlow)"/><circle cx="20" cy="60" r="6" fill="#B48EAD" stroke="#EBCB8B" stroke-width="1" filter="url(#entityGlow)"/><circle cx="-80" cy="60" r="6" fill="#A3BE8C" stroke="#EBCB8B" stroke-width="1" filter="url(#entityGlow)"/><circle cx="-60" cy="70" r="6" fill="#B48EAD" stroke="#EBCB8B" stroke-width="1" filter="url(#entityGlow)"/></g><g transform="translate(220, 230)"><circle cx="-25" cy="-20" r="5" fill="#A3BE8C" stroke="#EBCB8B" stroke-width="1" filter="url(#entityGlow)"/><circle cx="-15" cy="-10" r="5" fill="#B48EAD" stroke="#EBCB8B" stroke-width="1" filter="url(#entityGlow)"/><circle cx="10" cy="15" r="5" fill="#A3BE8C" stroke="#EBCB8B" stroke-width="1" filter="url(#entityGlow)"/><circle cx="20" cy="25" r="5" fill="#B48EAD" stroke="#EBCB8B" stroke-width="1" filter="url(#entityGlow)"/></g><g transform="translate(600, 230)"><circle cx="-30" cy="-20" r="5" fill="#A3BE8C" stroke="#EBCB8B" stroke-width="1" filter="url(#entityGlow)"/><circle cx="-20" cy="-10" r="5" fill="#B48EAD" stroke="#EBCB8B" stroke-width="1" filter="url(#entityGlow)"/><circle cx="15" cy="20" r="5" fill="#A3BE8C" stroke="#EBCB8B" stroke-width="1" filter="url(#entityGlow)"/><circle cx="25" cy="30" r="5" fill="#B48EAD" stroke="#EBCB8B" stroke-width="1" filter="url(#entityGlow)"/><circle cx="20" cy="-25" r="5" fill="#A3BE8C" stroke="#EBCB8B" stroke-width="1" filter="url(#entityGlow)"/><circle cx="30" cy="-15" r="5" fill="#B48EAD" stroke="#EBCB8B" stroke-width="1" filter="url(#entityGlow)"/></g><g transform="translate(500, 450)"><circle cx="-10" cy="-15" r="5" fill="#A3BE8C" stroke="#EBCB8B" stroke-width="1" filter="url(#entityGlow)"/><circle cx="10" cy="-15" r="5" fill="#B48EAD" stroke="#EBCB8B" stroke-width="1" filter="url(#entityGlow)"/><circle cx="0" cy="15" r="5" fill="#B48EAD" stroke="#EBCB8B" stroke-width="1" filter="url(#entityGlow)"/></g><g filter="url(#textBackground)"><rect width="220" height="80" x="100" y="460" fill="#272C36" opacity=".85" rx="10" ry="10"/><text x="210" y="485" fill="#E5E9F0" font-family="Arial, sans-serif" font-size="14" font-weight="bold" text-anchor="middle">Worlds</text><text x="210" y="510" fill="#88C0D0" font-family="Arial, sans-serif" font-size="12" text-anchor="middle">Like Discord servers or Slack workspaces</text><text x="210" y="530" fill="#88C0D0" font-family="Arial, sans-serif" font-size="12" text-anchor="middle">Each with their own purpose</text><rect width="220" height="80" x="530" y="460" fill="#272C36" opacity=".85" rx="10" ry="10"/><text x="640" y="485" fill="#E5E9F0" font-family="Arial, sans-serif" font-size="14" font-weight="bold" text-anchor="middle">Connected Environments</text><text x="640" y="510" fill="#88C0D0" font-family="Arial, sans-serif" font-size="12" text-anchor="middle">Worlds can share information</text><text x="640" y="530" fill="#88C0D0" font-family="Arial, sans-serif" font-size="12" text-anchor="middle">and entities can move between them</text></g><g opacity=".9" transform="translate(100, 360)"><rect width="130" height="80" x="0" y="0" fill="#272C36" rx="5" ry="5"/><text x="10" y="20" fill="#E5E9F0" font-family="Arial, sans-serif" font-size="12" font-weight="bold">Legend:</text><circle cx="20" cy="40" r="8" fill="#1A1D2D" stroke="#4D5BCE" stroke-width="1.5"/><text x="40" y="44" fill="#E5E9F0" font-family="Arial, sans-serif" font-size="11">World</text><circle cx="20" cy="60" r="6" fill="#292E42" stroke="#88C0D0" stroke-width="1"/><text x="40" y="64" fill="#E5E9F0" font-family="Arial, sans-serif" font-size="11">Room</text><circle cx="70" cy="40" r="4" fill="#A3BE8C" stroke="#EBCB8B" stroke-width=".5"/><text x="90" y="44" fill="#E5E9F0" font-family="Arial, sans-serif" font-size="11">User</text><circle cx="70" cy="60" r="4" fill="#B48EAD" stroke="#EBCB8B" stroke-width=".5"/><text x="90" y="64" fill="#E5E9F0" font-family="Arial, sans-serif" font-size="11">Agent</text></g><text x="400" y="570" fill="#88C0D0" font-family="Arial, sans-serif" font-size="16" text-anchor="middle">Virtual environments hosting rooms and entities for specific purposes</text><g opacity=".4"><circle cx="100" cy="100" r="2" fill="#88C0D0"/><circle cx="150" cy="80" r="1" fill="#88C0D0"/><circle cx="600" cy="120" r="2" fill="#88C0D0"/><circle cx="650" cy="90" r="1" fill="#88C0D0"/><circle cx="200" cy="500" r="1" fill="#88C0D0"/><circle cx="700" cy="450" r="2" fill="#88C0D0"/><circle cx="750" cy="520" r="1" fill="#88C0D0"/></g></svg>