<svg xmlns="http://www.w3.org/2000/svg" viewBox="0 0 800 600"><defs><linearGradient id="bgGradient" x1="0%" x2="100%" y1="0%" y2="100%"><stop offset="0%" stop-color="#0D1117"/><stop offset="100%" stop-color="#161B22"/></linearGradient><filter id="worldGlow" width="200%" height="200%" x="-50%" y="-50%"><feGaussianBlur result="blur" stdDeviation="5"/><feComposite in="SourceGraphic" in2="blur" operator="over"/></filter><filter id="roomGlow" width="160%" height="160%" x="-30%" y="-30%"><feGaussianBlur result="blur" stdDeviation="2"/><feComposite in="SourceGraphic" in2="blur" operator="over"/></filter><filter id="entityGlow" width="160%" height="160%" x="-30%" y="-30%"><feGaussianBlur result="blur" stdDeviation="1"/><feComposite in="SourceGraphic" in2="blur" operator="over"/></filter><marker id="arrowhead" markerHeight="7" markerWidth="10" orient="auto" refX="0" refY="3.5"><polygon fill="#4D5BCE" points="0 0 10 3.5 0 7"/></marker></defs><rect width="800" height="600" fill="url(#bgGradient)"/><g stroke="#343B4A" stroke-width=".5" opacity=".3"><path d="M0,100 H800 M0,200 H800 M0,300 H800 M0,400 H800 M0,500 H800"/><path d="M100,0 V600 M200,0 V600 M300,0 V600 M400,0 V600 M500,0 V600 M600,0 V600 M700,0 V600"/></g><text x="400" y="50" fill="#E5E9F0" font-family="Arial, sans-serif" font-size="24" font-weight="bold" text-anchor="middle">ElizaOS Architecture</text><g transform="translate(250, 180)"><circle cx="0" cy="0" r="120" fill="#1A1D2D" stroke="#4D5BCE" stroke-width="2" filter="url(#worldGlow)"/><text x="0" y="-85" fill="#4D5BCE" font-family="Arial, sans-serif" font-size="16" font-weight="bold" text-anchor="middle">World A</text><circle cx="-50" cy="-20" r="30" fill="#292E42" stroke="#88C0D0" stroke-width="1.5" filter="url(#roomGlow)"/><text x="-50" y="-17" fill="#88C0D0" font-family="Arial, sans-serif" font-size="10" text-anchor="middle">Room 1</text><circle cx="40" cy="-30" r="25" fill="#292E42" stroke="#88C0D0" stroke-width="1.5" filter="url(#roomGlow)"/><text x="40" y="-27" fill="#88C0D0" font-family="Arial, sans-serif" font-size="10" text-anchor="middle">Room 2</text><circle cx="0" cy="50" r="35" fill="#292E42" stroke="#88C0D0" stroke-width="1.5" filter="url(#roomGlow)"/><text x="0" y="53" fill="#88C0D0" font-family="Arial, sans-serif" font-size="10" text-anchor="middle">Room 3</text><circle cx="-60" cy="-30" r="8" fill="#A3BE8C" stroke="#EBCB8B" stroke-width="1" filter="url(#entityGlow)"/><circle cx="-40" cy="-10" r="8" fill="#B48EAD" stroke="#EBCB8B" stroke-width="1" filter="url(#entityGlow)"/><circle cx="35" cy="-40" r="8" fill="#A3BE8C" stroke="#EBCB8B" stroke-width="1" filter="url(#entityGlow)"/><circle cx="50" cy="-20" r="8" fill="#B48EAD" stroke="#EBCB8B" stroke-width="1" filter="url(#entityGlow)"/><circle cx="-15" cy="50" r="8" fill="#A3BE8C" stroke="#EBCB8B" stroke-width="1" filter="url(#entityGlow)"/><circle cx="15" cy="50" r="8" fill="#B48EAD" stroke="#EBCB8B" stroke-width="1" filter="url(#entityGlow)"/></g><g transform="translate(550, 200)"><circle cx="0" cy="0" r="100" fill="#1A1D2D" stroke="#4D5BCE" stroke-width="2" filter="url(#worldGlow)"/><text x="0" y="-70" fill="#4D5BCE" font-family="Arial, sans-serif" font-size="16" font-weight="bold" text-anchor="middle">World B</text><circle cx="-30" cy="-20" r="25" fill="#292E42" stroke="#88C0D0" stroke-width="1.5" filter="url(#roomGlow)"/><text x="-30" y="-17" fill="#88C0D0" font-family="Arial, sans-serif" font-size="10" text-anchor="middle">Room 1</text><circle cx="30" cy="30" r="30" fill="#292E42" stroke="#88C0D0" stroke-width="1.5" filter="url(#roomGlow)"/><text x="30" y="33" fill="#88C0D0" font-family="Arial, sans-serif" font-size="10" text-anchor="middle">Room 2</text><circle cx="-40" cy="-30" r="8" fill="#A3BE8C" stroke="#EBCB8B" stroke-width="1" filter="url(#entityGlow)"/><circle cx="-20" cy="-10" r="8" fill="#B48EAD" stroke="#EBCB8B" stroke-width="1" filter="url(#entityGlow)"/><circle cx="20" cy="20" r="8" fill="#A3BE8C" stroke="#EBCB8B" stroke-width="1" filter="url(#entityGlow)"/><circle cx="40" cy="40" r="8" fill="#B48EAD" stroke="#EBCB8B" stroke-width="1" filter="url(#entityGlow)"/></g><g transform="translate(400, 400)"><circle cx="0" cy="0" r="40" fill="#292E42" stroke="#88C0D0" stroke-width="2" filter="url(#roomGlow)"/><text x="0" y="-55" fill="#88C0D0" font-family="Arial, sans-serif" font-size="16" font-weight="bold" text-anchor="middle">Independent Room</text><circle cx="-15" cy="0" r="8" fill="#A3BE8C" stroke="#EBCB8B" stroke-width="1" filter="url(#entityGlow)"/><circle cx="15" cy="0" r="8" fill="#B48EAD" stroke="#EBCB8B" stroke-width="1" filter="url(#entityGlow)"/></g><g stroke="#4D5BCE" stroke-dasharray="5 3" stroke-width="1.5" opacity=".7"><path marker-end="url(#arrowhead)" d="M370,180 Q400,130 450,190"/><path marker-end="url(#arrowhead)" d="M300,280 Q350,350 370,380"/><path marker-end="url(#arrowhead)" d="M500,280 Q450,350 430,380"/></g><g transform="translate(100, 480)"><text x="0" y="0" fill="#E5E9F0" font-family="Arial, sans-serif" font-size="14" font-weight="bold">Legend:</text><circle cx="15" cy="20" r="10" fill="#1A1D2D" stroke="#4D5BCE" stroke-width="1.5"/><text x="35" y="24" fill="#E5E9F0" font-family="Arial, sans-serif" font-size="12">World</text><circle cx="15" cy="45" r="10" fill="#292E42" stroke="#88C0D0" stroke-width="1.5"/><text x="35" y="49" fill="#E5E9F0" font-family="Arial, sans-serif" font-size="12">Room</text><circle cx="15" cy="70" r="6" fill="#A3BE8C" stroke="#EBCB8B" stroke-width="1"/><text x="35" y="74" fill="#E5E9F0" font-family="Arial, sans-serif" font-size="12">User</text><circle cx="15" cy="95" r="6" fill="#B48EAD" stroke="#EBCB8B" stroke-width="1"/><text x="35" y="99" fill="#E5E9F0" font-family="Arial, sans-serif" font-size="12">Agent</text><line x1="100" x2="130" y1="70" y2="70" stroke="#4D5BCE" stroke-dasharray="5 3" stroke-width="1.5" marker-end="url(#arrowhead)"/><text x="140" y="74" fill="#E5E9F0" font-family="Arial, sans-serif" font-size="12">Connection</text></g><g fill="#E5E9F0" font-family="Arial, sans-serif"><text x="680" y="480" font-size="11" text-anchor="end">Worlds contain multiple rooms</text><text x="680" y="500" font-size="11" text-anchor="end">Rooms host entities (users/agents)</text><text x="680" y="520" font-size="11" text-anchor="end">Entities interact across rooms</text><text x="680" y="540" font-size="11" text-anchor="end">Rooms can exist independently</text></g></svg>