<svg xmlns="http://www.w3.org/2000/svg" viewBox="0 0 800 600"><defs><linearGradient id="bgGradient" x1="0%" x2="100%" y1="0%" y2="100%"><stop offset="0%" stop-color="#1A1E2D"/><stop offset="100%" stop-color="#252B3D"/></linearGradient><filter id="softGlow" width="160%" height="160%" x="-30%" y="-30%"><feGaussianBlur result="blur" stdDeviation="3"/><feComposite in="SourceGraphic" in2="blur" operator="over"/></filter></defs><rect width="800" height="600" fill="url(#bgGradient)"/><text x="400" y="80" fill="#E5E9F0" font-family="Arial, sans-serif" font-size="36" font-weight="bold" text-anchor="middle">Worlds</text><text x="400" y="120" fill="#4D5BCE" font-family="Arial, sans-serif" font-size="18" text-anchor="middle">in ElizaOS</text><g transform="translate(400, 300)"><rect width="80" height="320" x="-300" y="-150" fill="#272C36" stroke="#4C566A" stroke-width="2" rx="5" ry="5"/><circle cx="-260" cy="-120" r="25" fill="#4D5BCE" stroke="#E5E9F0" stroke-width="2"/><text x="-260" y="-115" fill="#E5E9F0" font-family="Arial, sans-serif" font-size="12" font-weight="bold" text-anchor="middle">DEV</text><circle cx="-260" cy="-60" r="25" fill="#5E81AC" stroke="#E5E9F0" stroke-width="3"/><text x="-260" y="-55" fill="#E5E9F0" font-family="Arial, sans-serif" font-size="12" font-weight="bold" text-anchor="middle">AI</text><circle cx="-260" cy="0" r="25" fill="#A3BE8C"/><text x="-260" y="5" fill="#2E3440" font-family="Arial, sans-serif" font-size="12" font-weight="bold" text-anchor="middle">PROD</text><circle cx="-260" cy="60" r="25" fill="#B48EAD"/><text x="-260" y="65" fill="#2E3440" font-family="Arial, sans-serif" font-size="12" font-weight="bold" text-anchor="middle">QA</text><circle cx="-260" cy="120" r="25" fill="#D08770"/><text x="-260" y="125" fill="#2E3440" font-family="Arial, sans-serif" font-size="11" font-weight="bold" text-anchor="middle">GAME</text><circle cx="-260" cy="170" r="15" fill="#3B4252" stroke="#81A1C1" stroke-dasharray="3 2" stroke-width="2"/><text x="-260" y="175" fill="#81A1C1" font-family="Arial, sans-serif" font-size="16" font-weight="bold" text-anchor="middle">+</text><rect width="405" height="320" x="-205" y="-150" fill="#2E3440" stroke="#4C566A" stroke-width="2" rx="10" ry="10"/><rect width="405" height="50" x="-205" y="-150" fill="#272C36" rx="10" ry="10"/><circle cx="-175" cy="-125" r="15" fill="#5E81AC"/><text x="-150" y="-120" fill="#E5E9F0" font-family="Arial, sans-serif" font-size="18" font-weight="bold">AI Research World</text><g font-family="Arial, sans-serif" font-size="14"><text x="-185" y="-80" fill="#88C0D0" font-weight="bold">TEXT CHANNELS</text><text x="-175" y="-50" fill="#D8DEE9"># welcome</text><text x="-175" y="-20" fill="#D8DEE9"># announcements</text><text x="-175" y="10" fill="#D8DEE9"># general</text><text x="-175" y="40" fill="#D8DEE9"># support</text><text x="-175" y="70" fill="#D8DEE9"># research</text><text x="-185" y="110" fill="#88C0D0" font-weight="bold">VOICE CHANNELS</text><text x="-175" y="140" fill="#D8DEE9">🔊 Meeting Room</text><text x="70" y="-80" fill="#88C0D0" font-weight="bold">MEMBERS (8)</text><circle cx="60" cy="-50" r="8" fill="#A3BE8C"/><text x="75" y="-45" fill="#D8DEE9">User1</text><circle cx="60" cy="-20" r="8" fill="#A3BE8C"/><text x="75" y="-15" fill="#D8DEE9">User2</text><circle cx="60" cy="10" r="8" fill="#B48EAD"/><text x="75" y="15" fill="#D8DEE9">ResearchAgent</text><circle cx="60" cy="40" r="8" fill="#B48EAD"/><text x="75" y="45" fill="#D8DEE9">AssistantBot</text><circle cx="60" cy="70" r="8" fill="#A3BE8C"/><text x="75" y="75" fill="#D8DEE9">User3</text><circle cx="60" cy="100" r="8" fill="#A3BE8C"/><text x="75" y="105" fill="#D8DEE9">User4</text></g></g><g filter="url(#softGlow)"><rect width="200" height="80" x="120" y="460" fill="#4C566A" opacity=".9" rx="10" ry="10"/><text x="220" y="485" fill="#ECEFF4" font-family="Arial, sans-serif" font-size="14" font-weight="bold" text-anchor="middle">Worlds</text><text x="220" y="510" fill="#E5E9F0" font-family="Arial, sans-serif" font-size="12" text-anchor="middle">Like Discord servers or</text><text x="220" y="530" fill="#E5E9F0" font-family="Arial, sans-serif" font-size="12" text-anchor="middle">Slack workspaces</text><rect width="200" height="80" x="530" y="460" fill="#4C566A" opacity=".9" rx="10" ry="10"/><text x="630" y="485" fill="#ECEFF4" font-family="Arial, sans-serif" font-size="14" font-weight="bold" text-anchor="middle">Rooms within Worlds</text><text x="630" y="510" fill="#E5E9F0" font-family="Arial, sans-serif" font-size="12" text-anchor="middle">Like channels in a server</text><text x="630" y="530" fill="#E5E9F0" font-family="Arial, sans-serif" font-size="12" text-anchor="middle">for specific discussions</text><line x1="160" x2="145" y1="460" y2="300" stroke="#4D5BCE" stroke-dasharray="3 2" stroke-width="1.5"/><line x1="580" x2="350" y1="460" y2="330" stroke="#4D5BCE" stroke-dasharray="3 2" stroke-width="1.5"/></g><text x="400" y="570" fill="#4D5BCE" font-family="Arial, sans-serif" font-size="16" text-anchor="middle">Virtual environments containing multiple rooms and entities</text></svg>