<svg xmlns="http://www.w3.org/2000/svg" viewBox="0 0 800 600"><defs><linearGradient id="bgGradient" x1="0%" x2="100%" y1="0%" y2="100%"><stop offset="0%" stop-color="#0D1117"/><stop offset="100%" stop-color="#161B22"/></linearGradient><filter id="worldGlow" width="200%" height="200%" x="-50%" y="-50%"><feGaussianBlur result="blur" stdDeviation="6"/><feComposite in="SourceGraphic" in2="blur" operator="over"/></filter><filter id="roomGlow" width="160%" height="160%" x="-30%" y="-30%"><feGaussianBlur result="blur" stdDeviation="2"/><feComposite in="SourceGraphic" in2="blur" operator="over"/></filter><filter id="entityGlow" width="160%" height="160%" x="-30%" y="-30%"><feGaussianBlur result="blur" stdDeviation="1"/><feComposite in="SourceGraphic" in2="blur" operator="over"/></filter><marker id="arrowhead" markerHeight="7" markerWidth="10" orient="auto" refX="0" refY="3.5"><polygon fill="#4D5BCE" points="0 0 10 3.5 0 7"/></marker></defs><rect width="800" height="600" fill="url(#bgGradient)"/><g stroke="#343B4A" stroke-width=".5" opacity=".15"><path d="M0,100 H800 M0,200 H800 M0,300 H800 M0,400 H800 M0,500 H800"/><path d="M100,0 V600 M200,0 V600 M300,0 V600 M400,0 V600 M500,0 V600 M600,0 V600 M700,0 V600"/></g><text x="400" y="80" fill="#E5E9F0" font-family="Arial, sans-serif" font-size="42" font-weight="bold" text-anchor="middle">Worlds</text><text x="400" y="120" fill="#88C0D0" font-family="Arial, sans-serif" font-size="18" text-anchor="middle">In ElizaOS Framework</text><g transform="translate(400, 320)"><circle cx="0" cy="0" r="130" fill="#1A1D2D" stroke="#4D5BCE" stroke-width="3" filter="url(#worldGlow)"/><text x="0" y="0" fill="#4D5BCE" font-family="Arial, sans-serif" font-size="26" font-weight="bold" text-anchor="middle">DEV</text><g opacity=".9"><circle cx="-60" cy="-40" r="25" fill="#292E42" stroke="#88C0D0" stroke-width="1.5" filter="url(#roomGlow)"/><text x="-60" y="-36" fill="#E5E9F0" font-family="Arial, sans-serif" font-size="11" text-anchor="middle">#general</text><circle cx="50" cy="-50" r="22" fill="#292E42" stroke="#88C0D0" stroke-width="1.5" filter="url(#roomGlow)"/><text x="50" y="-46" fill="#E5E9F0" font-family="Arial, sans-serif" font-size="11" text-anchor="middle">#bugs</text><circle cx="10" cy="60" r="30" fill="#292E42" stroke="#88C0D0" stroke-width="1.5" filter="url(#roomGlow)"/><text x="10" y="64" fill="#E5E9F0" font-family="Arial, sans-serif" font-size="11" text-anchor="middle">#roadmap</text><circle cx="-70" cy="60" r="20" fill="#292E42" stroke="#88C0D0" stroke-width="1.5" filter="url(#roomGlow)"/><text x="-70" y="64" fill="#E5E9F0" font-family="Arial, sans-serif" font-size="9" text-anchor="middle">#support</text></g></g><g transform="translate(220, 230)"><circle cx="0" cy="0" r="70" fill="#1A1D2D" stroke="#B48EAD" stroke-width="2.5" filter="url(#worldGlow)"/><text x="0" y="5" fill="#B48EAD" font-family="Arial, sans-serif" font-size="20" font-weight="bold" text-anchor="middle">QA</text><g opacity=".9"><circle cx="-20" cy="-15" r="15" fill="#292E42" stroke="#88C0D0" stroke-width="1" filter="url(#roomGlow)"/><text x="-20" y="-12" fill="#E5E9F0" font-family="Arial, sans-serif" font-size="8" text-anchor="middle">#tests</text><circle cx="15" cy="20" r="18" fill="#292E42" stroke="#88C0D0" stroke-width="1" filter="url(#roomGlow)"/><text x="15" y="23" fill="#E5E9F0" font-family="Arial, sans-serif" font-size="8" text-anchor="middle">#reports</text></g></g><g transform="translate(600, 230)"><circle cx="0" cy="0" r="80" fill="#1A1D2D" stroke="#A3BE8C" stroke-width="2.5" filter="url(#worldGlow)"/><text x="0" y="5" fill="#A3BE8C" font-family="Arial, sans-serif" font-size="20" font-weight="bold" text-anchor="middle">PROD</text><g opacity=".9"><circle cx="-25" cy="-15" r="20" fill="#292E42" stroke="#88C0D0" stroke-width="1" filter="url(#roomGlow)"/><text x="-25" y="-11" fill="#E5E9F0" font-family="Arial, sans-serif" font-size="9" text-anchor="middle">#main</text><circle cx="20" cy="25" r="17" fill="#292E42" stroke="#88C0D0" stroke-width="1" filter="url(#roomGlow)"/><text x="20" y="29" fill="#E5E9F0" font-family="Arial, sans-serif" font-size="9" text-anchor="middle">#help</text><circle cx="25" cy="-20" r="15" fill="#292E42" stroke="#88C0D0" stroke-width="1" filter="url(#roomGlow)"/><text x="25" y="-16" fill="#E5E9F0" font-family="Arial, sans-serif" font-size="7" text-anchor="middle">#status</text></g></g><g transform="translate(500, 450)"><circle cx="0" cy="0" r="60" fill="#1A1D2D" stroke="#5E81AC" stroke-width="2.5" filter="url(#worldGlow)"/><text x="0" y="5" fill="#5E81AC" font-family="Arial, sans-serif" font-size="20" font-weight="bold" text-anchor="middle">AI</text><g opacity=".9"><circle cx="0" cy="-15" r="17" fill="#292E42" stroke="#88C0D0" stroke-width="1" filter="url(#roomGlow)"/><text x="0" y="-11" fill="#E5E9F0" font-family="Arial, sans-serif" font-size="8" text-anchor="middle">#models</text><circle cx="0" cy="15" r="12" fill="#292E42" stroke="#88C0D0" stroke-width="1" filter="url(#roomGlow)"/><text x="0" y="19" fill="#E5E9F0" font-family="Arial, sans-serif" font-size="7" text-anchor="middle">#data</text></g></g><g stroke-dasharray="5 3" stroke-width="1.5" opacity=".7"><path stroke="#4D5BCE" marker-end="url(#arrowhead)" d="M280,250 L340,290"/><path stroke="#A3BE8C" marker-end="url(#arrowhead)" d="M540,250 L460,290"/><path stroke="#5E81AC" marker-end="url(#arrowhead)" d="M450,400 L480,410"/></g><g transform="translate(400, 320)"><circle cx="-65" cy="-50" r="5" fill="#A3BE8C" stroke="#EBCB8B" stroke-width="1" filter="url(#entityGlow)"/><circle cx="-55" cy="-30" r="5" fill="#B48EAD" stroke="#EBCB8B" stroke-width="1" filter="url(#entityGlow)"/><circle cx="40" cy="-60" r="5" fill="#A3BE8C" stroke="#EBCB8B" stroke-width="1" filter="url(#entityGlow)"/><circle cx="60" cy="-40" r="5" fill="#B48EAD" stroke="#EBCB8B" stroke-width="1" filter="url(#entityGlow)"/><circle cx="0" cy="60" r="5" fill="#A3BE8C" stroke="#EBCB8B" stroke-width="1" filter="url(#entityGlow)"/><circle cx="20" cy="60" r="5" fill="#B48EAD" stroke="#EBCB8B" stroke-width="1" filter="url(#entityGlow)"/><circle cx="-80" cy="60" r="5" fill="#A3BE8C" stroke="#EBCB8B" stroke-width="1" filter="url(#entityGlow)"/><circle cx="-60" cy="65" r="5" fill="#B48EAD" stroke="#EBCB8B" stroke-width="1" filter="url(#entityGlow)"/></g><g transform="translate(220, 230)"><circle cx="-25" cy="-20" r="4" fill="#A3BE8C" stroke="#EBCB8B" stroke-width="1" filter="url(#entityGlow)"/><circle cx="-15" cy="-10" r="4" fill="#B48EAD" stroke="#EBCB8B" stroke-width="1" filter="url(#entityGlow)"/><circle cx="10" cy="15" r="4" fill="#A3BE8C" stroke="#EBCB8B" stroke-width="1" filter="url(#entityGlow)"/><circle cx="20" cy="25" r="4" fill="#B48EAD" stroke="#EBCB8B" stroke-width="1" filter="url(#entityGlow)"/></g><g transform="translate(600, 230)"><circle cx="-30" cy="-20" r="4" fill="#A3BE8C" stroke="#EBCB8B" stroke-width="1" filter="url(#entityGlow)"/><circle cx="-20" cy="-10" r="4" fill="#B48EAD" stroke="#EBCB8B" stroke-width="1" filter="url(#entityGlow)"/><circle cx="15" cy="20" r="4" fill="#A3BE8C" stroke="#EBCB8B" stroke-width="1" filter="url(#entityGlow)"/><circle cx="25" cy="30" r="4" fill="#B48EAD" stroke="#EBCB8B" stroke-width="1" filter="url(#entityGlow)"/><circle cx="20" cy="-25" r="4" fill="#A3BE8C" stroke="#EBCB8B" stroke-width="1" filter="url(#entityGlow)"/><circle cx="30" cy="-15" r="4" fill="#B48EAD" stroke="#EBCB8B" stroke-width="1" filter="url(#entityGlow)"/></g><g transform="translate(500, 450)"><circle cx="-10" cy="-15" r="4" fill="#A3BE8C" stroke="#EBCB8B" stroke-width="1" filter="url(#entityGlow)"/><circle cx="10" cy="-15" r="4" fill="#B48EAD" stroke="#EBCB8B" stroke-width="1" filter="url(#entityGlow)"/><circle cx="0" cy="15" r="4" fill="#B48EAD" stroke="#EBCB8B" stroke-width="1" filter="url(#entityGlow)"/></g><g transform="translate(70, 500)"><rect width="180" height="80" x="0" y="0" fill="#1A1D2D" stroke="#4C566A" stroke-width="1" opacity=".8" rx="8" ry="8"/><text x="15" y="25" fill="#E5E9F0" font-family="Arial, sans-serif" font-size="14" font-weight="bold">Legend</text><circle cx="30" cy="45" r="10" fill="#1A1D2D" stroke="#4D5BCE" stroke-width="1.5"/><text x="50" y="49" fill="#E5E9F0" font-family="Arial, sans-serif" font-size="12">World</text><circle cx="30" cy="70" r="7" fill="#292E42" stroke="#88C0D0" stroke-width="1"/><text x="50" y="74" fill="#E5E9F0" font-family="Arial, sans-serif" font-size="12">Room</text><circle cx="110" cy="45" r="5" fill="#A3BE8C" stroke="#EBCB8B" stroke-width="1"/><text x="130" y="49" fill="#E5E9F0" font-family="Arial, sans-serif" font-size="12">User</text><circle cx="110" cy="70" r="5" fill="#B48EAD" stroke="#EBCB8B" stroke-width="1"/><text x="130" y="74" fill="#E5E9F0" font-family="Arial, sans-serif" font-size="12">Agent</text></g><text x="400" y="550" fill="#88C0D0" font-family="Arial, sans-serif" font-size="16" text-anchor="middle">Virtual environments hosting rooms and entities</text><g opacity=".3"><circle cx="100" cy="100" r="2" fill="#88C0D0"/><circle cx="150" cy="80" r="1" fill="#88C0D0"/><circle cx="600" cy="120" r="2" fill="#88C0D0"/><circle cx="650" cy="90" r="1" fill="#88C0D0"/><circle cx="200" cy="450" r="1" fill="#88C0D0"/><circle cx="700" cy="450" r="2" fill="#88C0D0"/><circle cx="750" cy="520" r="1" fill="#88C0D0"/><circle cx="300" cy="150" r="1" fill="#88C0D0"/><circle cx="480" cy="180" r="2" fill="#88C0D0"/><circle cx="520" cy="140" r="1" fill="#88C0D0"/></g></svg>