<svg xmlns="http://www.w3.org/2000/svg" viewBox="0 0 800 600"><defs><linearGradient id="bgGradient" x1="0%" x2="100%" y1="0%" y2="100%"><stop offset="0%" stop-color="#0D1117"/><stop offset="100%" stop-color="#161B22"/></linearGradient><filter id="worldGlow" width="200%" height="200%" x="-50%" y="-50%"><feGaussianBlur result="blur" stdDeviation="6"/><feComposite in="SourceGraphic" in2="blur" operator="over"/></filter><filter id="roomGlow" width="160%" height="160%" x="-30%" y="-30%"><feGaussianBlur result="blur" stdDeviation="2"/><feComposite in="SourceGraphic" in2="blur" operator="over"/></filter><filter id="entityGlow" width="160%" height="160%" x="-30%" y="-30%"><feGaussianBlur result="blur" stdDeviation="1"/><feComposite in="SourceGraphic" in2="blur" operator="over"/></filter><marker id="arrowhead" markerHeight="7" markerWidth="10" orient="auto" refX="0" refY="3.5"><polygon fill="#4D5BCE" points="0 0 10 3.5 0 7"/></marker></defs><rect width="800" height="600" fill="url(#bgGradient)"/><g stroke="#343B4A" stroke-width=".5" opacity=".2"><path d="M0,100 H800 M0,200 H800 M0,300 H800 M0,400 H800 M0,500 H800"/><path d="M100,0 V600 M200,0 V600 M300,0 V600 M400,0 V600 M500,0 V600 M600,0 V600 M700,0 V600"/></g><text x="400" y="100" fill="#E5E9F0" font-family="Arial, sans-serif" font-size="42" font-weight="bold" text-anchor="middle">Worlds</text><text x="400" y="140" fill="#88C0D0" font-family="Arial, sans-serif" font-size="18" text-anchor="middle">In ElizaOS Framework</text><g transform="translate(400, 320)"><circle cx="0" cy="0" r="150" fill="#1A1D2D" stroke="#4D5BCE" stroke-width="3" filter="url(#worldGlow)"/><circle cx="-60" cy="-40" r="35" fill="#292E42" stroke="#88C0D0" stroke-width="1.5" filter="url(#roomGlow)" opacity=".8"/><circle cx="50" cy="-50" r="30" fill="#292E42" stroke="#88C0D0" stroke-width="1.5" filter="url(#roomGlow)" opacity=".8"/><circle cx="10" cy="60" r="40" fill="#292E42" stroke="#88C0D0" stroke-width="1.5" filter="url(#roomGlow)" opacity=".8"/><circle cx="-70" cy="60" r="25" fill="#292E42" stroke="#88C0D0" stroke-width="1.5" filter="url(#roomGlow)" opacity=".8"/><g transform="translate(-180, -100)"><circle cx="0" cy="0" r="50" fill="#1A1D2D" stroke="#4D5BCE" stroke-width="2" filter="url(#worldGlow)"/><circle cx="15" cy="-10" r="15" fill="#292E42" stroke="#88C0D0" stroke-width="1" opacity=".8"/><circle cx="-10" cy="10" r="12" fill="#292E42" stroke="#88C0D0" stroke-width="1" opacity=".8"/></g><g transform="translate(200, -110)"><circle cx="0" cy="0" r="60" fill="#1A1D2D" stroke="#4D5BCE" stroke-width="2" filter="url(#worldGlow)"/><circle cx="-20" cy="-15" r="18" fill="#292E42" stroke="#88C0D0" stroke-width="1" opacity=".8"/><circle cx="15" cy="20" r="16" fill="#292E42" stroke="#88C0D0" stroke-width="1" opacity=".8"/><circle cx="20" cy="-10" r="12" fill="#292E42" stroke="#88C0D0" stroke-width="1" opacity=".8"/></g><g transform="translate(150, 150)"><circle cx="0" cy="0" r="40" fill="#1A1D2D" stroke="#4D5BCE" stroke-width="2" filter="url(#worldGlow)"/><circle cx="0" cy="0" r="15" fill="#292E42" stroke="#88C0D0" stroke-width="1" opacity=".8"/></g><path stroke="#4D5BCE" stroke-dasharray="5 3" stroke-width="1.5" marker-end="url(#arrowhead)" d="M-150,-90 L-30,-20" opacity=".6"/><path stroke="#4D5BCE" stroke-dasharray="5 3" stroke-width="1.5" marker-end="url(#arrowhead)" d="M150,-100 L30,-20" opacity=".6"/><path stroke="#4D5BCE" stroke-dasharray="5 3" stroke-width="1.5" marker-end="url(#arrowhead)" d="M130,130 L40,40" opacity=".6"/><circle cx="-60" cy="-50" r="6" fill="#A3BE8C" stroke="#EBCB8B" stroke-width="1" filter="url(#entityGlow)"/><circle cx="-50" cy="-30" r="6" fill="#B48EAD" stroke="#EBCB8B" stroke-width="1" filter="url(#entityGlow)"/><circle cx="40" cy="-60" r="6" fill="#A3BE8C" stroke="#EBCB8B" stroke-width="1" filter="url(#entityGlow)"/><circle cx="60" cy="-40" r="6" fill="#B48EAD" stroke="#EBCB8B" stroke-width="1" filter="url(#entityGlow)"/><circle cx="0" cy="60" r="6" fill="#A3BE8C" stroke="#EBCB8B" stroke-width="1" filter="url(#entityGlow)"/><circle cx="20" cy="60" r="6" fill="#B48EAD" stroke="#EBCB8B" stroke-width="1" filter="url(#entityGlow)"/><circle cx="-80" cy="60" r="6" fill="#A3BE8C" stroke="#EBCB8B" stroke-width="1" filter="url(#entityGlow)"/><circle cx="-60" cy="70" r="6" fill="#B48EAD" stroke="#EBCB8B" stroke-width="1" filter="url(#entityGlow)"/><circle cx="-175" cy="-105" r="5" fill="#A3BE8C" stroke="#EBCB8B" stroke-width="1" filter="url(#entityGlow)"/><circle cx="-185" cy="-95" r="5" fill="#B48EAD" stroke="#EBCB8B" stroke-width="1" filter="url(#entityGlow)"/><circle cx="190" cy="-115" r="5" fill="#A3BE8C" stroke="#EBCB8B" stroke-width="1" filter="url(#entityGlow)"/><circle cx="210" cy="-105" r="5" fill="#B48EAD" stroke="#EBCB8B" stroke-width="1" filter="url(#entityGlow)"/><circle cx="145" cy="145" r="5" fill="#A3BE8C" stroke="#EBCB8B" stroke-width="1" filter="url(#entityGlow)"/><circle cx="155" cy="155" r="5" fill="#B48EAD" stroke="#EBCB8B" stroke-width="1" filter="url(#entityGlow)"/></g><g fill="#E5E9F0" font-family="Arial, sans-serif"><text x="400" y="520" fill="#88C0D0" font-size="15" text-anchor="middle">Virtual environments hosting interconnected rooms and entities</text></g><g opacity=".4"><circle cx="100" cy="100" r="2" fill="#88C0D0"/><circle cx="150" cy="80" r="1" fill="#88C0D0"/><circle cx="600" cy="120" r="2" fill="#88C0D0"/><circle cx="650" cy="90" r="1" fill="#88C0D0"/><circle cx="200" cy="500" r="1" fill="#88C0D0"/><circle cx="700" cy="450" r="2" fill="#88C0D0"/><circle cx="750" cy="520" r="1" fill="#88C0D0"/></g></svg>