<svg xmlns="http://www.w3.org/2000/svg" viewBox="0 0 800 600"><defs><linearGradient id="bgGradient" x1="0%" x2="100%" y1="0%" y2="100%"><stop offset="0%" stop-color="#0D1117"/><stop offset="100%" stop-color="#161B22"/></linearGradient><filter id="entityGlow" width="160%" height="160%" x="-30%" y="-30%"><feGaussianBlur result="blur" stdDeviation="4"/><feComposite in="SourceGraphic" in2="blur" operator="over"/></filter><filter id="componentGlow" width="140%" height="140%" x="-20%" y="-20%"><feGaussianBlur result="blur" stdDeviation="2"/><feComposite in="SourceGraphic" in2="blur" operator="over"/></filter><filter id="softShadow" width="120%" height="130%" x="-10%" y="-10%"><feGaussianBlur in="SourceAlpha" stdDeviation="3"/><feOffset dx="2" dy="2" result="offsetblur"/><feComponentTransfer><feFuncA slope=".3" type="linear"/></feComponentTransfer><feMerge><feMergeNode/><feMergeNode in="SourceGraphic"/></feMerge></filter><pattern id="gridPattern" width="20" height="20" patternUnits="userSpaceOnUse"><rect width="20" height="20" fill="none" stroke="#2D3748" stroke-width=".5" opacity=".3"/></pattern><marker id="circleMarker" markerHeight="6" markerWidth="6" refX="3" refY="3"><circle cx="3" cy="3" r="2" fill="#88C0D0"/></marker></defs><rect width="800" height="600" fill="url(#bgGradient)"/><rect width="800" height="600" fill="url(#gridPattern)" opacity=".2"/><text x="400" y="60" fill="#E5E9F0" font-family="Arial, sans-serif" font-size="32" font-weight="bold" text-anchor="middle">Entities</text><g filter="url(#entityGlow)" transform="translate(220, 180)"><circle cx="0" cy="0" r="50" fill="#1E293B" stroke="#A3BE8C" stroke-width="2.5"/><circle cx="0" cy="-15" r="12" fill="#A3BE8C"/><path fill="none" stroke="#A3BE8C" stroke-width="2" d="M-20,10 A20,20 0 0,0 20,10"/><text x="0" y="35" fill="#E5E9F0" font-family="Arial, sans-serif" font-size="12" text-anchor="middle">User</text></g><g filter="url(#entityGlow)" transform="translate(580, 180)"><circle cx="0" cy="0" r="50" fill="#1E293B" stroke="#B48EAD" stroke-width="2.5"/><rect width="40" height="40" x="-20" y="-20" fill="none" stroke="#B48EAD" stroke-width="2" rx="4" ry="4"/><path stroke="#B48EAD" stroke-width="2" d="M-10,-10 L10,10 M-10,10 L10,-10"/><text x="0" y="35" fill="#E5E9F0" font-family="Arial, sans-serif" font-size="12" text-anchor="middle">Agent</text></g><g transform="translate(400, 350)"><rect width="360" height="160" x="-180" y="-40" fill="#1E293B" stroke="#4D5BCE" stroke-width="2" rx="10" ry="10"/><text x="0" y="-15" fill="#88C0D0" font-family="Arial, sans-serif" font-size="16" text-anchor="middle">Components</text><g filter="url(#componentGlow)" transform="translate(-120, 40)"><rect width="70" height="50" x="-35" y="-25" fill="#2D3748" stroke="#5E81AC" stroke-width="1.5" rx="6" ry="6"/><circle cx="-20" cy="-10" r="6" fill="#5E81AC"/><line x1="-5" x2="20" y1="-10" y2="-10" stroke="#5E81AC" stroke-width="1.5"/><line x1="-5" x2="20" y1="0" y2="0" stroke="#5E81AC" stroke-width="1.5"/><line x1="-5" x2="20" y1="10" y2="10" stroke="#5E81AC" stroke-width="1.5"/></g><g filter="url(#componentGlow)" transform="translate(0, 40)"><rect width="70" height="50" x="-35" y="-25" fill="#2D3748" stroke="#EBCB8B" stroke-width="1.5" rx="6" ry="6"/><rect width="15" height="10" x="-20" y="-10" fill="#EBCB8B" opacity=".8"/><rect width="40" height="10" x="-20" y="5" fill="#EBCB8B" opacity=".5"/><rect width="15" height="10" x="5" y="-10" fill="#EBCB8B" opacity=".3"/></g><g filter="url(#componentGlow)" transform="translate(120, 40)"><rect width="70" height="50" x="-35" y="-25" fill="#2D3748" stroke="#BF616A" stroke-width="1.5" rx="6" ry="6"/><circle cx="-15" cy="0" r="10" fill="none" stroke="#BF616A" stroke-width="1.5"/><circle cx="15" cy="0" r="10" fill="none" stroke="#BF616A" stroke-width="1.5"/><path stroke="#BF616A" stroke-width="1.5" d="M-5,0 L5,0"/><path stroke="#BF616A" stroke-width="1.5" d="M15,-10 L15,10"/></g></g><g stroke="#88C0D0" stroke-dasharray="3 2" stroke-width="1.5" opacity=".7"><path marker-end="url(#circleMarker)" d="M220,230 L280,350"/><path marker-end="url(#circleMarker)" d="M220,230 L400,350"/><path marker-end="url(#circleMarker)" d="M220,230 L520,350"/></g><g stroke="#B48EAD" stroke-dasharray="3 2" stroke-width="1.5" opacity=".7"><path marker-end="url(#circleMarker)" d="M580,230 L520,350"/><path marker-end="url(#circleMarker)" d="M580,230 L400,350"/><path marker-end="url(#circleMarker)" d="M580,230 L280,350"/></g><g filter="url(#entityGlow)" transform="translate(400, 180)"><circle cx="0" cy="0" r="60" fill="#1E293B" stroke="#4D5BCE" stroke-width="3"/><circle cx="-15" cy="-10" r="8" fill="#A3BE8C" opacity=".9"/><rect width="16" height="16" x="5" y="-18" fill="none" stroke="#B48EAD" stroke-width="1.5" opacity=".9" rx="2" ry="2"/><path stroke="#B48EAD" stroke-width="1.5" d="M9,-10 L17,-10 M13,-14 L13,-6" opacity=".9"/><path fill="none" stroke="#88C0D0" stroke-width="2" d="M-20,10 A25,20 0 0,0 20,10"/><text x="0" y="35" fill="#E5E9F0" font-family="Arial, sans-serif" font-size="12" text-anchor="middle">Entity</text></g><g stroke="#4D5BCE" stroke-width="2" opacity=".6"><path marker-end="url(#circleMarker)" d="M280,180 L340,180"/><path marker-end="url(#circleMarker)" d="M460,180 L520,180"/></g><g><g filter="url(#componentGlow)" transform="translate(400, 180) translate(30, -35)"><circle cx="0" cy="0" r="10" fill="#2D3748" stroke="#5E81AC" stroke-width="1.5"/></g><g filter="url(#componentGlow)" transform="translate(400, 180) translate(-25, -35)"><circle cx="0" cy="0" r="10" fill="#2D3748" stroke="#EBCB8B" stroke-width="1.5"/></g><g filter="url(#componentGlow)" transform="translate(400, 180) translate(0, -45)"><circle cx="0" cy="0" r="10" fill="#2D3748" stroke="#BF616A" stroke-width="1.5"/></g></g><g opacity=".6"><path stroke="#4D5BCE" stroke-dasharray="1 2" stroke-width="1" d="M400,240 Q400,290 350,310"/><path stroke="#4D5BCE" stroke-dasharray="1 2" stroke-width="1" d="M400,240 Q400,290 400,310"/><path stroke="#4D5BCE" stroke-dasharray="1 2" stroke-width="1" d="M400,240 Q400,290 450,310"/></g><g transform="translate(400, 500)"><rect width="300" height="60" x="-150" y="-30" fill="#1E293B" stroke="#4D5BCE" stroke-width="1.5" rx="8" ry="8"/><g transform="translate(-100, 0)"><rect width="40" height="30" x="-20" y="-15" fill="#2D3748" stroke="#5E81AC" stroke-width="1" rx="4" ry="4"/><circle cx="0" cy="0" r="5" fill="#5E81AC"/></g><g transform="translate(0, 0)"><rect width="40" height="30" x="-20" y="-15" fill="#2D3748" stroke="#EBCB8B" stroke-width="1" rx="4" ry="4"/><circle cx="0" cy="0" r="5" fill="#EBCB8B"/></g><g transform="translate(100, 0)"><rect width="40" height="30" x="-20" y="-15" fill="#2D3748" stroke="#BF616A" stroke-width="1" rx="4" ry="4"/><circle cx="0" cy="0" r="5" fill="#BF616A"/></g><line x1="-60" x2="-40" y1="0" y2="0" stroke="#4D5BCE" stroke-width="1"/><line x1="40" x2="60" y1="0" y2="0" stroke="#4D5BCE" stroke-width="1"/></g><g opacity=".3"><circle cx="100" cy="80" r="2" fill="#88C0D0"/><circle cx="150" cy="60" r="1" fill="#88C0D0"/><circle cx="700" cy="100" r="2" fill="#88C0D0"/><circle cx="650" cy="70" r="1" fill="#88C0D0"/><circle cx="200" cy="500" r="1" fill="#88C0D0"/><circle cx="700" cy="450" r="2" fill="#88C0D0"/><circle cx="750" cy="520" r="1" fill="#88C0D0"/></g></svg>